<svg width="217" height="227" viewBox="0 0 217 227" fill="none" xmlns="http://www.w3.org/2000/svg">
<path fill-rule="evenodd" clip-rule="evenodd" d="M130 15.9026C130 15.9026 137.114 15.8399 139.989 12.9646C142.864 10.0893 142.927 0.625 142.927 0.625C142.927 0.625 143.868 10.1831 147.04 12.9646C149.932 15.5007 156.441 15.9026 156.441 15.9026C156.441 15.9026 148.874 15.7878 145.865 18.8406C143.01 21.7362 142.927 28.8298 142.927 28.8298C142.927 28.8298 142.864 21.7159 139.989 18.8406C137.114 15.9653 130 15.9026 130 15.9026ZM172 201.903C172 201.903 179.114 201.84 181.989 198.965C184.864 196.089 184.927 186.625 184.927 186.625C184.927 186.625 185.868 196.183 189.04 198.965C191.932 201.501 198.441 201.903 198.441 201.903C198.441 201.903 190.874 201.788 187.865 204.841C185.01 207.736 184.927 214.83 184.927 214.83C184.927 214.83 184.864 207.716 181.989 204.841C179.114 201.965 172 201.903 172 201.903ZM55.3218 46.9638C54.0778 48.2079 51 48.235 51 48.235C51 48.235 54.0778 48.2621 55.3218 49.5061C56.5658 50.7502 56.5929 53.8281 56.5929 53.8281C56.5929 53.8281 56.6289 50.759 57.864 49.5061C59.1661 48.1853 62.44 48.235 62.44 48.235C62.44 48.235 59.6238 48.0611 58.3725 46.9638C57.0001 45.7604 56.5929 41.625 56.5929 41.625C56.5929 41.625 56.5658 45.7198 55.3218 46.9638ZM0 221.235C0 221.235 3.07781 221.208 4.32178 219.964C5.56576 218.72 5.5929 214.625 5.5929 214.625C5.5929 214.625 6.0001 218.76 7.37245 219.964C8.62375 221.061 11.44 221.235 11.44 221.235C11.44 221.235 8.16612 221.185 6.86401 222.506C5.62891 223.759 5.5929 226.828 5.5929 226.828C5.5929 226.828 5.56576 223.75 4.32178 222.506C3.07781 221.262 0 221.235 0 221.235ZM93.3218 144.964C92.0778 146.208 89 146.235 89 146.235C89 146.235 92.0778 146.262 93.3218 147.506C94.5658 148.75 94.5929 151.828 94.5929 151.828C94.5929 151.828 94.6289 148.759 95.864 147.506C97.1661 146.185 100.44 146.235 100.44 146.235C100.44 146.235 97.6237 146.061 96.3725 144.964C95.0001 143.76 94.5929 139.625 94.5929 139.625C94.5929 139.625 94.5658 143.72 93.3218 144.964ZM155 131.228C155 131.228 159.471 131.188 161.279 129.381C163.086 127.574 163.125 121.625 163.125 121.625C163.125 121.625 163.717 127.633 165.71 129.381C167.528 130.975 171.62 131.228 171.62 131.228C171.62 131.228 166.863 131.156 164.972 133.074C163.177 134.894 163.125 139.353 163.125 139.353C163.125 139.353 163.086 134.882 161.279 133.074C159.471 131.267 155 131.228 155 131.228ZM50.8137 191.032C50.8137 193.466 48.8407 195.439 46.4069 195.439C43.973 195.439 42 193.466 42 191.032C42 188.598 43.973 186.625 46.4069 186.625C48.8407 186.625 50.8137 188.598 50.8137 191.032ZM187.518 78.6614C188.909 78.6614 190.036 77.534 190.036 76.1432C190.036 74.7524 188.909 73.625 187.518 73.625C186.127 73.625 185 74.7524 185 76.1432C185 77.534 186.127 78.6614 187.518 78.6614ZM119.036 198.143C119.036 199.534 117.909 200.661 116.518 200.661C115.127 200.661 114 199.534 114 198.143C114 196.752 115.127 195.625 116.518 195.625C117.909 195.625 119.036 196.752 119.036 198.143ZM93.4069 89.4387C95.8407 89.4387 97.8137 87.4657 97.8137 85.0319C97.8137 82.598 95.8407 80.625 93.4069 80.625C90.973 80.625 89 82.598 89 85.0319C89 87.4657 90.973 89.4387 93.4069 89.4387ZM216.043 12.1432C216.043 13.534 214.916 14.6614 213.525 14.6614C212.134 14.6614 211.007 13.534 211.007 12.1432C211.007 10.7524 212.134 9.625 213.525 9.625C214.916 9.625 216.043 10.7524 216.043 12.1432ZM30.5182 126.661C31.909 126.661 33.0364 125.534 33.0364 124.143C33.0364 122.752 31.909 121.625 30.5182 121.625C29.1274 121.625 28 122.752 28 124.143C28 125.534 29.1274 126.661 30.5182 126.661Z" fill="#381563"/>
</svg>
